<svg version="1.1" id="Layer_1" xmlns="http://www.w3.org/2000/svg" xmlns:xlink="http://www.w3.org/1999/xlink" x="0px" y="0px"
	 width="100%" viewBox="0 0 512 512" enable-background="new 0 0 512 512" xml:space="preserve">
<path fill="#000000" opacity="1.000000" stroke="none" 
	d="
M345.000000,513.000000 
	C230.027939,513.000000 115.555870,513.000000 1.041900,513.000000 
	C1.041900,342.402924 1.041900,171.805817 1.041900,1.104355 
	C171.555405,1.104355 342.110901,1.104355 512.833191,1.104355 
	C512.833191,171.666534 512.833191,342.333252 512.833191,513.000000 
	C457.139069,513.000000 401.319550,513.000000 345.000000,513.000000 
M169.644333,423.926361 
	C181.164185,425.282654 192.673767,427.697449 204.205704,427.809326 
	C250.518219,428.258759 296.837677,428.018738 343.154480,427.955811 
	C347.457733,427.949982 351.781281,427.573364 356.059723,427.067474 
	C385.979584,423.529694 409.674438,408.925079 427.867096,385.416595 
	C445.309753,362.877197 451.422882,336.818420 448.744110,308.773041 
	C447.105743,291.620056 441.080261,275.778503 431.275452,261.498840 
	C429.463074,258.859283 428.476105,256.588379 430.673065,253.404465 
	C446.754425,230.098618 451.906921,204.200958 448.002533,176.424561 
	C444.132935,148.895615 430.584534,126.422913 409.241119,109.281685 
	C385.761749,90.424950 358.430725,82.604515 328.344360,87.032784 
	C289.176849,92.797653 261.077148,113.777222 244.564148,149.890060 
	C242.751144,153.854996 240.785980,155.404251 236.157150,154.141617 
	C220.268692,149.807571 204.098068,148.937714 187.710953,150.885605 
	C152.330368,155.091171 122.874420,170.526459 99.321922,197.182022 
	C71.549400,228.613632 61.144901,265.477051 65.932297,306.777557 
	C69.866379,340.716583 85.069359,368.886169 110.296928,391.903534 
	C127.252403,407.373566 146.714294,417.930634 169.644333,423.926361 
z"/>
<path fill="#222222" opacity="1.000000" stroke="none" 
	d="
M169.240875,423.837341 
	C146.714294,417.930634 127.252403,407.373566 110.296928,391.903534 
	C85.069359,368.886169 69.866379,340.716583 65.932297,306.777557 
	C61.144901,265.477051 71.549400,228.613632 99.321922,197.182022 
	C122.874420,170.526459 152.330368,155.091171 187.710953,150.885605 
	C204.098068,148.937714 220.268692,149.807571 236.157150,154.141617 
	C240.785980,155.404251 242.751144,153.854996 244.564148,149.890060 
	C261.077148,113.777222 289.176849,92.797653 328.344360,87.032784 
	C358.430725,82.604515 385.761749,90.424950 409.241119,109.281685 
	C430.584534,126.422913 444.132935,148.895615 448.002533,176.424561 
	C451.906921,204.200958 446.754425,230.098618 430.673065,253.404465 
	C428.476105,256.588379 429.463074,258.859283 431.275452,261.498840 
	C441.080261,275.778503 447.105743,291.620056 448.744110,308.773041 
	C451.422882,336.818420 445.309753,362.877197 427.867096,385.416595 
	C409.674438,408.925079 385.979584,423.529694 356.059723,427.067474 
	C351.781281,427.573364 347.457733,427.949982 343.154480,427.955811 
	C296.837677,428.018738 250.518219,428.258759 204.205704,427.809326 
	C192.673767,427.697449 181.164185,425.282654 169.240875,423.837341 
M118.125580,208.630188 
	C92.186020,237.225677 82.253937,270.658905 88.022713,308.761658 
	C96.015579,361.554596 143.690552,404.811768 196.978668,405.864746 
	C246.778229,406.848816 296.622589,406.759552 346.427307,405.937103 
	C392.207428,405.181091 429.115784,364.942291 427.684113,319.127838 
	C425.988708,264.874054 376.309418,226.276459 323.322632,238.045700 
	C312.370209,240.478424 310.469055,239.639786 304.772766,229.968994 
	C289.481720,204.008575 267.295380,185.934464 238.756180,177.368393 
	C193.013519,163.638672 152.666061,174.450851 118.125580,208.630188 
M387.739594,120.722435 
	C337.624268,89.999580 279.521667,116.900436 264.191223,166.301178 
	C265.597717,167.075623 267.030304,167.886276 268.482269,168.660538 
	C286.383759,178.206329 302.068298,190.584564 313.679474,207.244095 
	C318.795624,214.584702 323.510834,219.176270 332.651978,215.109177 
	C333.083344,214.917252 333.640625,215.014801 334.137848,214.963577 
	C360.259430,212.272888 382.916687,220.983170 403.619446,236.096939 
	C405.977814,237.818649 408.260468,239.644028 410.851471,241.630829 
	C412.377411,239.305069 413.712646,237.412857 414.903534,235.433807 
	C438.953857,195.465897 427.798187,147.418671 387.739594,120.722435 
z"/>
<path fill="#42A5F5" opacity="1.000000" stroke="none" 
	d="
M118.365997,208.372406 
	C152.666061,174.450851 193.013519,163.638672 238.756180,177.368393 
	C267.295380,185.934464 289.481720,204.008575 304.772766,229.968994 
	C310.469055,239.639786 312.370209,240.478424 323.322632,238.045700 
	C376.309418,226.276459 425.988708,264.874054 427.684113,319.127838 
	C429.115784,364.942291 392.207428,405.181091 346.427307,405.937103 
	C296.622589,406.759552 246.778229,406.848816 196.978668,405.864746 
	C143.690552,404.811768 96.015579,361.554596 88.022713,308.761658 
	C82.253937,270.658905 92.186020,237.225677 118.365997,208.372406 
z"/>
<path fill="#FEC928" opacity="1.000000" stroke="none" 
	d="
M388.054382,120.903610 
	C427.798187,147.418671 438.953857,195.465897 414.903534,235.433807 
	C413.712646,237.412857 412.377411,239.305069 410.851471,241.630829 
	C408.260468,239.644028 405.977814,237.818649 403.619446,236.096939 
	C382.916687,220.983170 360.259430,212.272888 334.137848,214.963577 
	C333.640625,215.014801 333.083344,214.917252 332.651978,215.109177 
	C323.510834,219.176270 318.795624,214.584702 313.679474,207.244095 
	C302.068298,190.584564 286.383759,178.206329 268.482269,168.660538 
	C267.030304,167.886276 265.597717,167.075623 264.191223,166.301178 
	C279.521667,116.900436 337.624268,89.999580 388.054382,120.903610 
z"/>
</svg>